<svg width="308" height="72" viewBox="0 0 308 72" fill="none" xmlns="http://www.w3.org/2000/svg">
<rect width="308" height="72" fill="#1E1E1E"/>
<g id="Landing">
<rect width="1440" height="1024" transform="translate(-1037 -64)" fill="white"/>
<g id="Navbar">
<g id="Rectangle 7">
<rect x="-1037" y="-64" width="1440" height="215" fill="url(#paint0_linear_0_1)"/>
<rect x="-1037" y="-64" width="1440" height="215" stroke="black"/>
</g>
<g id="Connect">
<g id="Group 11">
<rect id="Rectangle 1" x="1" y="1" width="169.54" height="54" rx="19" fill="#FFB915" fill-opacity="0.53" stroke="black" stroke-width="2"/>
<path id="Contact" d="M27.524 35.8555C25.7907 35.8555 24.299 35.5055 23.049 34.8055C21.799 34.1055 20.8407 33.1055 20.174 31.8055C19.5073 30.5055 19.174 28.9722 19.174 27.2055C19.174 25.4389 19.5157 23.9139 20.199 22.6305C20.899 21.3305 21.8823 20.3305 23.149 19.6305C24.4157 18.9139 25.9073 18.5555 27.624 18.5555C29.2073 18.5555 30.5823 18.9055 31.749 19.6055C32.9323 20.3055 33.8407 21.2472 34.474 22.4305L30.974 23.7055C30.6073 23.0222 30.1073 22.5389 29.474 22.2555C28.8407 21.9555 28.1823 21.8055 27.499 21.8055C26.7323 21.8055 26.0323 22.0222 25.399 22.4555C24.7657 22.8722 24.2657 23.4889 23.899 24.3055C23.5323 25.1055 23.349 26.0722 23.349 27.2055C23.349 28.9555 23.749 30.2972 24.549 31.2305C25.3657 32.1472 26.3657 32.6055 27.549 32.6055C28.1823 32.6055 28.8323 32.4722 29.499 32.2055C30.1823 31.9389 30.7157 31.4472 31.099 30.7305L34.574 32.0055C33.9073 33.1889 32.9573 34.1305 31.724 34.8305C30.5073 35.5139 29.1073 35.8555 27.524 35.8555ZM41.8803 35.8555C40.7303 35.8555 39.6553 35.6222 38.6553 35.1555C37.6553 34.6889 36.8469 33.9722 36.2303 33.0055C35.6136 32.0222 35.3053 30.7889 35.3053 29.3055C35.3053 27.8055 35.6136 26.5805 36.2303 25.6305C36.8469 24.6639 37.6553 23.9555 38.6553 23.5055C39.6553 23.0389 40.7303 22.8055 41.8803 22.8055C43.0136 22.8055 44.0803 23.0389 45.0803 23.5055C46.0803 23.9555 46.8886 24.6639 47.5053 25.6305C48.1219 26.5805 48.4303 27.8055 48.4303 29.3055C48.4303 30.7889 48.1219 32.0222 47.5053 33.0055C46.8886 33.9722 46.0803 34.6889 45.0803 35.1555C44.0803 35.6222 43.0136 35.8555 41.8803 35.8555ZM41.8803 32.9055C42.6469 32.9055 43.2803 32.6305 43.7803 32.0805C44.2969 31.5305 44.5553 30.6055 44.5553 29.3055C44.5553 27.9889 44.2886 27.0722 43.7553 26.5555C43.2386 26.0222 42.6136 25.7555 41.8803 25.7555C41.1303 25.7555 40.4886 26.0222 39.9553 26.5555C39.4386 27.0722 39.1803 27.9889 39.1803 29.3055C39.1803 30.6055 39.4386 31.5305 39.9553 32.0805C40.4719 32.6305 41.1136 32.9055 41.8803 32.9055ZM50.2863 35.5555V23.1555H53.6113L54.0863 24.8055C54.3696 24.3389 54.8363 23.8889 55.4863 23.4555C56.153 23.0222 56.9613 22.8055 57.9113 22.8055C59.5113 22.8055 60.603 23.2555 61.1863 24.1555C61.7863 25.0389 62.0863 26.3222 62.0863 28.0055V35.5555H58.2863V28.9555C58.2863 28.3722 58.253 27.8389 58.1863 27.3555C58.1196 26.8722 57.953 26.4889 57.6863 26.2055C57.4363 25.9055 57.003 25.7555 56.3863 25.7555C55.5863 25.7555 55.003 26.0472 54.6363 26.6305C54.2696 27.1972 54.0863 28.0472 54.0863 29.1805V35.5555H50.2863ZM69.818 35.5555C68.8013 35.5555 67.993 35.4722 67.393 35.3055C66.793 35.1222 66.3596 34.7805 66.093 34.2805C65.843 33.7639 65.718 33.0222 65.718 32.0555V26.0555H63.668V23.1555H65.718V20.0555H69.518V23.1555H72.218V26.0555H69.518V31.0555C69.518 31.6389 69.6263 32.0222 69.843 32.2055C70.0763 32.3722 70.5013 32.4555 71.118 32.4555H72.218V35.5555H69.818ZM77.6906 35.8555C76.9073 35.8555 76.1906 35.7055 75.5406 35.4055C74.8906 35.1055 74.3739 34.6889 73.9906 34.1555C73.6073 33.6055 73.4156 32.9555 73.4156 32.2055C73.4156 31.1889 73.7656 30.3805 74.4656 29.7805C75.1823 29.1805 76.1573 28.7305 77.3906 28.4305C78.6239 28.1305 80.0406 27.9222 81.6406 27.8055C81.6406 26.9222 81.4989 26.2972 81.2156 25.9305C80.9323 25.5639 80.3823 25.3805 79.5656 25.3805C79.0489 25.3805 78.5906 25.5055 78.1906 25.7555C77.8073 25.9889 77.5489 26.3555 77.4156 26.8555L74.2156 25.7055C74.6323 24.8722 75.3239 24.1805 76.2906 23.6305C77.2739 23.0805 78.4739 22.8055 79.8906 22.8055C81.6573 22.8055 83.0156 23.1972 83.9656 23.9805C84.9156 24.7639 85.3906 26.0972 85.3906 27.9805V30.7055C85.3906 31.2389 85.4073 31.8139 85.4406 32.4305C85.4739 33.0472 85.5239 33.6305 85.5906 34.1805C85.6573 34.7305 85.7323 35.1889 85.8156 35.5555H82.2906L81.8406 34.0555C81.3739 34.7055 80.7823 35.1722 80.0656 35.4555C79.3656 35.7222 78.5739 35.8555 77.6906 35.8555ZM79.0906 33.2555C79.8406 33.2555 80.4656 33.0555 80.9656 32.6555C81.4656 32.2555 81.7156 31.4889 81.7156 30.3555V30.0555C80.3989 30.1722 79.3406 30.3555 78.5406 30.6055C77.7406 30.8389 77.3406 31.2805 77.3406 31.9305C77.3406 32.3305 77.5073 32.6555 77.8406 32.9055C78.1739 33.1389 78.5906 33.2555 79.0906 33.2555ZM93.584 35.8555C92.2173 35.8555 91.059 35.5805 90.109 35.0305C89.1756 34.4805 88.459 33.7139 87.959 32.7305C87.4756 31.7305 87.234 30.5805 87.234 29.2805C87.234 27.9805 87.5006 26.8472 88.034 25.8805C88.5673 24.8972 89.309 24.1389 90.259 23.6055C91.2256 23.0722 92.334 22.8055 93.584 22.8055C94.3006 22.8055 95.009 22.9055 95.709 23.1055C96.4256 23.3055 97.084 23.6472 97.684 24.1305C98.3006 24.5972 98.8006 25.2389 99.184 26.0555L96.009 27.2055C95.809 26.6722 95.509 26.2972 95.109 26.0805C94.7256 25.8639 94.2923 25.7555 93.809 25.7555C93.359 25.7555 92.9256 25.8722 92.509 26.1055C92.0923 26.3222 91.7506 26.6889 91.484 27.2055C91.234 27.7222 91.109 28.4222 91.109 29.3055C91.109 30.2055 91.2423 30.9222 91.509 31.4555C91.7756 31.9722 92.109 32.3472 92.509 32.5805C92.9256 32.7972 93.359 32.9055 93.809 32.9055C94.3423 32.9055 94.7923 32.8055 95.159 32.6055C95.5256 32.3889 95.8173 32.0972 96.034 31.7305L99.134 32.8555C98.7173 33.6055 98.2006 34.2055 97.584 34.6555C96.9673 35.0889 96.309 35.3972 95.609 35.5805C94.9256 35.7639 94.2506 35.8555 93.584 35.8555ZM106.097 35.5555C105.081 35.5555 104.272 35.4722 103.672 35.3055C103.072 35.1222 102.639 34.7805 102.372 34.2805C102.122 33.7639 101.997 33.0222 101.997 32.0555V26.0555H99.9473V23.1555H101.997V20.0555H105.797V23.1555H108.497V26.0555H105.797V31.0555C105.797 31.6389 105.906 32.0222 106.122 32.2055C106.356 32.3722 106.781 32.4555 107.397 32.4555H108.497V35.5555H106.097Z" fill="black"/>
</g>
<g id="Group 12">
<rect id="Rectangle 1_2" x="130.742" y="17" width="175.63" height="54" rx="19" fill="#FFB915" fill-opacity="0.53" stroke="black" stroke-width="2"/>
<path id="Donate" d="M195.555 51.5555V34.8555H201.055C202.422 34.8555 203.689 34.9972 204.855 35.2805C206.039 35.5472 207.064 36.0055 207.93 36.6555C208.814 37.2889 209.497 38.1472 209.98 39.2305C210.48 40.2972 210.73 41.6222 210.73 43.2055C210.73 44.8055 210.48 46.1389 209.98 47.2055C209.497 48.2722 208.814 49.1305 207.93 49.7805C207.064 50.4139 206.039 50.8722 204.855 51.1555C203.689 51.4222 202.422 51.5555 201.055 51.5555H195.555ZM199.505 48.2305H201.13C201.847 48.2305 202.53 48.1722 203.18 48.0555C203.847 47.9389 204.439 47.7139 204.955 47.3805C205.489 47.0305 205.905 46.5222 206.205 45.8555C206.505 45.1889 206.655 44.3055 206.655 43.2055C206.655 42.1055 206.505 41.2222 206.205 40.5555C205.905 39.8722 205.489 39.3639 204.955 39.0305C204.439 38.6805 203.847 38.4472 203.18 38.3305C202.53 38.1972 201.847 38.1305 201.13 38.1305H199.505V48.2305ZM218.769 51.8555C217.619 51.8555 216.544 51.6222 215.544 51.1555C214.544 50.6889 213.736 49.9722 213.119 49.0055C212.502 48.0222 212.194 46.7889 212.194 45.3055C212.194 43.8055 212.502 42.5805 213.119 41.6305C213.736 40.6639 214.544 39.9555 215.544 39.5055C216.544 39.0389 217.619 38.8055 218.769 38.8055C219.902 38.8055 220.969 39.0389 221.969 39.5055C222.969 39.9555 223.777 40.6639 224.394 41.6305C225.011 42.5805 225.319 43.8055 225.319 45.3055C225.319 46.7889 225.011 48.0222 224.394 49.0055C223.777 49.9722 222.969 50.6889 221.969 51.1555C220.969 51.6222 219.902 51.8555 218.769 51.8555ZM218.769 48.9055C219.536 48.9055 220.169 48.6305 220.669 48.0805C221.186 47.5305 221.444 46.6055 221.444 45.3055C221.444 43.9889 221.177 43.0722 220.644 42.5555C220.127 42.0222 219.502 41.7555 218.769 41.7555C218.019 41.7555 217.377 42.0222 216.844 42.5555C216.327 43.0722 216.069 43.9889 216.069 45.3055C216.069 46.6055 216.327 47.5305 216.844 48.0805C217.361 48.6305 218.002 48.9055 218.769 48.9055ZM227.175 51.5555V39.1555H230.5L230.975 40.8055C231.258 40.3389 231.725 39.8889 232.375 39.4555C233.042 39.0222 233.85 38.8055 234.8 38.8055C236.4 38.8055 237.492 39.2555 238.075 40.1555C238.675 41.0389 238.975 42.3222 238.975 44.0055V51.5555H235.175V44.9555C235.175 44.3722 235.142 43.8389 235.075 43.3555C235.008 42.8722 234.842 42.4889 234.575 42.2055C234.325 41.9055 233.892 41.7555 233.275 41.7555C232.475 41.7555 231.892 42.0472 231.525 42.6305C231.158 43.1972 230.975 44.0472 230.975 45.1805V51.5555H227.175ZM245.107 51.8555C244.323 51.8555 243.607 51.7055 242.957 51.4055C242.307 51.1055 241.79 50.6889 241.407 50.1555C241.023 49.6055 240.832 48.9555 240.832 48.2055C240.832 47.1889 241.182 46.3805 241.882 45.7805C242.598 45.1805 243.573 44.7305 244.807 44.4305C246.04 44.1305 247.457 43.9222 249.057 43.8055C249.057 42.9222 248.915 42.2972 248.632 41.9305C248.348 41.5639 247.798 41.3805 246.982 41.3805C246.465 41.3805 246.007 41.5055 245.607 41.7555C245.223 41.9889 244.965 42.3555 244.832 42.8555L241.632 41.7055C242.048 40.8722 242.74 40.1805 243.707 39.6305C244.69 39.0805 245.89 38.8055 247.307 38.8055C249.073 38.8055 250.432 39.1972 251.382 39.9805C252.332 40.7639 252.807 42.0972 252.807 43.9805V46.7055C252.807 47.2389 252.823 47.8139 252.857 48.4305C252.89 49.0472 252.94 49.6305 253.007 50.1805C253.073 50.7305 253.148 51.1889 253.232 51.5555H249.707L249.257 50.0555C248.79 50.7055 248.198 51.1722 247.482 51.4555C246.782 51.7222 245.99 51.8555 245.107 51.8555ZM246.507 49.2555C247.257 49.2555 247.882 49.0555 248.382 48.6555C248.882 48.2555 249.132 47.4889 249.132 46.3555V46.0555C247.815 46.1722 246.757 46.3555 245.957 46.6055C245.157 46.8389 244.757 47.2805 244.757 47.9305C244.757 48.3305 244.923 48.6555 245.257 48.9055C245.59 49.1389 246.007 49.2555 246.507 49.2555ZM260.525 51.5555C259.508 51.5555 258.7 51.4722 258.1 51.3055C257.5 51.1222 257.067 50.7805 256.8 50.2805C256.55 49.7639 256.425 49.0222 256.425 48.0555V42.0555H254.375V39.1555H256.425V36.0555H260.225V39.1555H262.925V42.0555H260.225V47.0555C260.225 47.6389 260.333 48.0222 260.55 48.2055C260.783 48.3722 261.208 48.4555 261.825 48.4555H262.925V51.5555H260.525ZM270.923 51.8555C269.589 51.8555 268.406 51.5972 267.373 51.0805C266.356 50.5472 265.556 49.7889 264.973 48.8055C264.406 47.8222 264.123 46.6472 264.123 45.2805C264.123 43.9639 264.423 42.8222 265.023 41.8555C265.639 40.8889 266.448 40.1389 267.448 39.6055C268.464 39.0722 269.573 38.8055 270.773 38.8055C272.139 38.8055 273.306 39.1305 274.273 39.7805C275.256 40.4139 275.998 41.2972 276.498 42.4305C276.998 43.5472 277.206 44.8389 277.123 46.3055H267.948C268.014 47.1722 268.331 47.8222 268.898 48.2555C269.481 48.6889 270.123 48.9055 270.823 48.9055C271.406 48.9055 271.906 48.8222 272.323 48.6555C272.756 48.4722 273.089 48.2472 273.323 47.9805L276.348 49.0805C275.698 50.0305 274.881 50.7305 273.898 51.1805C272.931 51.6305 271.939 51.8555 270.923 51.8555ZM267.948 44.0555H273.598C273.581 43.2555 273.306 42.6555 272.773 42.2555C272.239 41.8389 271.606 41.6305 270.873 41.6305C270.156 41.6305 269.514 41.8222 268.948 42.2055C268.398 42.5889 268.064 43.2055 267.948 44.0555Z" fill="black"/>
</g>
</g>
</g>
</g>
<defs>
<linearGradient id="paint0_linear_0_1" x1="-317" y1="-64" x2="-317" y2="167.863" gradientUnits="userSpaceOnUse">
<stop stop-color="white" stop-opacity="0"/>
<stop offset="1" stop-color="white"/>
</linearGradient>
</defs>
</svg>
