<svg width="94" height="100" viewBox="0 0 94 100" fill="none" xmlns="http://www.w3.org/2000/svg">
<path d="M56.3022 7.48196C56.3022 5.82511 57.6454 4.48196 59.3022 4.48196H90.2783C91.9352 4.48196 93.2783 5.82511 93.2783 7.48196V87.1993C93.2783 88.8561 91.9352 90.1993 90.2783 90.1993H59.3022C57.6454 90.1993 56.3022 88.8561 56.3022 87.1993V7.48196Z" fill="#2B6798"/>
<path fill-rule="evenodd" clip-rule="evenodd" d="M56.3022 65.7874V35.3281C62.1203 33.7899 62.8665 33.4372 64.3343 32.7435C64.4093 32.708 64.4863 32.6716 64.5659 32.6342C66.9469 31.5137 77.4515 28.0122 81.093 27.1718C84.7346 26.3314 85.3363 28.2254 85.0148 29.833C84.7919 30.9474 81.5249 32.5937 78.882 33.9255C78.2032 34.2676 77.5656 34.5889 77.0313 34.8752L61.2044 41.458C59.4303 42.2517 56.7505 43.699 60.224 43.1388C63.6975 42.5785 75.584 39.824 81.093 38.5167C83.5208 37.8631 88.2081 36.9481 88.6563 38.5167C88.7051 38.6874 88.7626 38.8405 88.818 38.988C88.9943 39.4578 89.1496 39.8717 88.9365 40.6177C88.2796 41.8219 87.7082 41.976 87.3563 42.071C87.258 42.0975 87.1768 42.1194 87.1157 42.1583L62.8851 49.5816C61.9981 49.7216 60.224 50.4219 60.224 50.9822C60.224 51.4558 62.2923 51.4957 63.8063 51.5249C64.0834 51.5302 64.342 51.5352 64.5659 51.5424C65.6857 51.4107 67.4978 51.2937 69.4042 51.1707C71.5515 51.0322 73.8184 50.8859 75.3505 50.7021C78.8521 50.2819 81.093 50.1419 84.5946 50.7021C88.3185 51.2978 84.1744 55.4641 81.093 55.4641C73.7165 56.4445 58.6553 58.4054 57.4228 58.4054C55.8821 58.4054 56.4423 60.5063 57.4228 60.5063C58.011 60.5063 61.6247 60.8089 65.2383 61.1114C67.6473 61.3131 70.0563 61.5148 71.5689 61.6268C74.5942 61.8509 74.7903 63.5877 74.5102 64.428C73.9499 65.3151 71.4569 67.0332 65.9665 66.8091C61.0544 66.6086 57.7193 66.0942 56.3022 65.7874Z" fill="white"/>
<rect x="0.558044" width="48.181" height="99.4433" rx="2" fill="#003166"/>
<path fill-rule="evenodd" clip-rule="evenodd" d="M0.558044 82.3558V58.4054C3.31259 56.7713 8.93365 53.3072 9.38184 52.5229C9.61876 52.1082 11.3585 49.5646 13.4678 46.4807C16.3463 42.2722 19.9129 37.0576 21.287 34.8752C22.562 32.8502 23.0847 32.5069 25.1604 31.1438C26.961 29.9613 29.9303 28.0114 35.5732 23.5302C36.6918 22.6419 37.3504 22.1078 37.8331 21.7162C38.5174 21.1612 38.8482 20.8929 39.635 20.3089C41.3157 17.2275 44.4925 16.493 46.0778 17.0875C47.7585 18.0679 47.3384 19.1884 46.6381 20.8691C46.6114 20.9331 46.5852 20.996 46.5594 21.0581C45.8574 22.7461 45.4359 23.7594 43.5567 25.9113C42.9178 26.6429 42.1039 27.5116 41.2851 28.3857C39.6513 30.1295 37.9978 31.8945 37.6742 32.6342C37.6524 32.684 37.6303 32.7343 37.6079 32.7851C36.6243 35.0229 35.2089 38.2429 43.8368 38.5168C45.6419 38.062 47.2694 37.6507 48.739 37.2776V66.5498C45.0239 67.5626 40.2986 68.7511 35.5732 69.6103C33.1873 70.0441 30.7168 70.089 28.3134 70.1326C25.3556 70.1863 22.4992 70.2382 20.0265 71.0109C19.3885 71.2103 18.836 71.3415 18.2953 71.47C15.4907 72.1364 13.0051 72.7269 0.558044 82.3558Z" fill="white"/>
</svg>
