<svg width="107" height="127" viewBox="0 0 107 127" fill="none" xmlns="http://www.w3.org/2000/svg">
<rect x="6.55804" width="48.181" height="99.4433" rx="2" fill="#003166"/>
<path d="M62.3022 7.48196C62.3022 5.82511 63.6454 4.48196 65.3022 4.48196H96.2783C97.9352 4.48196 99.2783 5.82511 99.2783 7.48196V87.1993C99.2783 88.8561 97.9352 90.1993 96.2783 90.1993H65.3022C63.6454 90.1993 62.3022 88.8561 62.3022 87.1993V7.48196Z" fill="#2B6798"/>
<path d="M15.3818 52.5229C14.9336 53.3072 9.31253 56.7714 6.558 58.4054C1.60918 70.2172 -5.31917 91.5438 6.558 82.3558C21.4045 70.8708 22.0788 72.2445 26.0265 71.0109C30.5084 69.6103 36.2509 70.578 41.5732 69.6103C47.7359 68.4898 53.8986 66.8091 57.8203 65.6886C60.9577 64.7922 60.8083 65.4085 61.8821 65.6886C62.9559 65.9687 66.4761 66.585 71.9665 66.8091C77.4569 67.0332 79.9499 65.3151 80.5102 64.428C80.7903 63.5877 80.5942 61.8509 77.5689 61.6268C73.7873 61.3467 64.4032 60.5063 63.4228 60.5063C62.4423 60.5063 61.8821 58.4054 63.4228 58.4054C64.6553 58.4054 79.7165 56.4445 87.093 55.4641C90.1744 55.4641 94.3185 51.2978 90.5946 50.7021C87.093 50.1419 84.8521 50.2819 81.3505 50.7021C78.458 51.0492 72.9469 51.2623 70.5659 51.5424C69.1186 51.4957 66.224 51.5424 66.224 50.9822C66.224 50.4219 67.9981 49.7216 68.8851 49.5816L93.1157 42.1583C93.3956 41.9802 94.0961 42.1583 94.9365 40.6177C95.2166 39.6373 94.8603 39.2305 94.6563 38.5168C94.2081 36.9481 89.5208 37.8631 87.093 38.5168C81.584 39.824 69.6975 42.5785 66.224 43.1388C62.7505 43.699 65.4303 42.2517 67.2044 41.458L83.0313 34.8752C85.6458 33.4746 90.7346 31.2336 91.0148 29.833C91.3363 28.2254 90.7346 26.3315 87.093 27.1718C83.4515 28.0122 72.9469 31.5137 70.5659 32.6342C68.1848 33.7547 68.1848 33.8947 49.8368 38.5168C41.013 38.2367 42.6937 34.8752 43.6742 32.6342C44.16 31.5238 47.6431 28.1025 49.5567 25.9113C51.505 23.6803 51.8864 22.6731 52.6381 20.8691C53.3384 19.1884 53.7585 18.0679 52.0778 17.0875C50.4925 16.493 47.3157 17.2275 45.635 20.3089C44.2932 21.3048 44.2777 21.3826 41.5732 23.5302C29.4256 33.1769 29.6681 31.0935 27.287 34.8752C24.906 38.6568 15.9421 51.5424 15.3818 52.5229Z" fill="white"/>
<path d="M29.7753 123.206V114.742H26.3353V112.518H35.7273V114.742H32.2873V123.206H29.7753ZM34.9878 123.206L39.0358 112.518H41.8198L45.8678 123.206H43.1158L42.4758 121.302H38.3798L37.7398 123.206H34.9878ZM39.0678 119.254H41.7878L40.4118 115.19L39.0678 119.254ZM46.6586 123.206V112.518H51.3306C52.1093 112.518 52.8026 112.598 53.4106 112.758C54.0186 112.908 54.4986 113.185 54.8506 113.59C55.2133 113.985 55.3946 114.556 55.3946 115.302C55.3946 115.793 55.2826 116.225 55.0586 116.598C54.8453 116.972 54.536 117.281 54.1306 117.526C54.632 117.697 55.0373 117.974 55.3466 118.358C55.6666 118.742 55.8266 119.26 55.8266 119.91C55.8266 120.71 55.6453 121.35 55.2826 121.83C54.9306 122.31 54.4293 122.662 53.7786 122.886C53.128 123.1 52.3706 123.206 51.5066 123.206H46.6586ZM49.1866 116.742H51.4106C51.8373 116.742 52.168 116.646 52.4026 116.454C52.648 116.252 52.7706 115.985 52.7706 115.654C52.7706 115.313 52.648 115.052 52.4026 114.87C52.168 114.678 51.8373 114.582 51.4106 114.582H49.1866V116.742ZM49.1866 121.11H51.5226C52.0666 121.11 52.472 121.004 52.7386 120.79C53.016 120.566 53.1546 120.268 53.1546 119.894C53.1546 119.521 53.016 119.228 52.7386 119.014C52.472 118.801 52.0666 118.694 51.5226 118.694H49.1866V121.11ZM56.5574 120.262V118.198H61.7734V120.262H56.5574ZM67.1818 123.398C66.0191 123.398 65.0378 123.164 64.2378 122.694C63.4484 122.214 62.8884 121.548 62.5578 120.694L64.8618 119.862C65.0111 120.374 65.2884 120.753 65.6938 120.998C66.1098 121.244 66.6111 121.366 67.1978 121.366C67.5071 121.366 67.8058 121.334 68.0938 121.27C68.3818 121.196 68.6218 121.078 68.8138 120.918C69.0058 120.748 69.1018 120.524 69.1018 120.246C69.1018 119.873 68.9204 119.585 68.5578 119.382C68.1951 119.169 67.7258 119.009 67.1498 118.902L65.8538 118.646C65.2778 118.529 64.7391 118.353 64.2378 118.118C63.7471 117.873 63.3524 117.553 63.0538 117.158C62.7551 116.753 62.6058 116.246 62.6058 115.638C62.6058 115.062 62.7391 114.566 63.0058 114.15C63.2724 113.734 63.6244 113.393 64.0618 113.126C64.5098 112.86 65.0004 112.662 65.5338 112.534C66.0671 112.396 66.6004 112.326 67.1338 112.326C67.7098 112.326 68.2644 112.406 68.7978 112.566C69.3418 112.726 69.8271 112.977 70.2538 113.318C70.6804 113.649 71.0058 114.092 71.2298 114.646L68.9418 115.478C68.8031 115.116 68.5524 114.838 68.1898 114.646C67.8378 114.454 67.4111 114.358 66.9098 114.358C66.4191 114.358 66.0084 114.449 65.6778 114.63C65.3578 114.801 65.1978 115.052 65.1978 115.382C65.1978 115.649 65.3098 115.878 65.5338 116.07C65.7578 116.262 66.0511 116.396 66.4138 116.47L67.8538 116.758C68.2911 116.844 68.7338 116.956 69.1818 117.094C69.6298 117.222 70.0404 117.398 70.4138 117.622C70.7978 117.836 71.1071 118.124 71.3418 118.486C71.5764 118.849 71.6938 119.308 71.6938 119.862C71.6938 120.428 71.5604 120.934 71.2938 121.382C71.0378 121.82 70.6911 122.188 70.2538 122.486C69.8271 122.785 69.3471 123.014 68.8138 123.174C68.2804 123.324 67.7364 123.398 67.1818 123.398ZM72.144 123.206L76.192 112.518H78.976L83.024 123.206H80.272L79.632 121.302H75.536L74.896 123.206H72.144ZM76.224 119.254H78.944L77.568 115.19L76.224 119.254Z" fill="#003166"/>
</svg>
