<svg width="312" height="335" viewBox="0 0 312 335" fill="none" xmlns="http://www.w3.org/2000/svg">
<path d="M187.27 18.0546C187.27 16.3978 188.613 15.0546 190.27 15.0546H308.47C310.127 15.0546 311.47 16.3978 311.47 18.0546V299.974C311.47 301.631 310.127 302.974 308.47 302.974H190.27C188.613 302.974 187.27 301.631 187.27 299.974V18.0546Z" fill="#2B6798"/>
<path fill-rule="evenodd" clip-rule="evenodd" d="M187.269 220.976V118.665C206.812 113.498 209.318 112.314 214.249 109.983C214.501 109.864 214.759 109.742 215.026 109.616C223.024 105.853 258.308 94.0913 270.54 91.2685C282.772 88.4458 284.793 94.8076 283.713 100.207C282.965 103.95 271.991 109.48 263.114 113.954C260.834 115.103 258.692 116.182 256.897 117.144L203.736 139.255C197.776 141.921 188.775 146.782 200.442 144.901C212.11 143.019 252.036 133.766 270.54 129.375C278.695 127.18 294.44 124.106 295.945 129.375C296.109 129.949 296.302 130.463 296.488 130.959C297.08 132.536 297.602 133.927 296.886 136.432C294.68 140.477 292.76 140.995 291.578 141.314C291.248 141.403 290.975 141.477 290.77 141.607L209.381 166.542C206.401 167.012 200.442 169.364 200.442 171.246C200.442 172.837 207.389 172.971 212.475 173.069C213.406 173.087 214.274 173.104 215.026 173.128C218.788 172.685 224.875 172.293 231.278 171.879C238.491 171.414 246.105 170.923 251.252 170.305C263.013 168.894 270.54 168.424 282.302 170.305C294.81 172.306 280.89 186.301 270.54 186.301C245.763 189.594 195.173 196.18 191.033 196.18C185.858 196.18 187.74 203.237 191.033 203.237C193.009 203.237 205.147 204.253 217.285 205.27C225.377 205.947 233.468 206.624 238.549 207.001C248.711 207.754 249.37 213.587 248.429 216.41C246.547 219.389 238.173 225.16 219.731 224.408C203.232 223.734 192.029 222.006 187.269 220.976Z" fill="white"/>
<rect x="0.0280151" width="161.837" height="334.024" rx="2" fill="#003166"/>
<path fill-rule="evenodd" clip-rule="evenodd" d="M0.0280151 276.628V196.18C9.28038 190.692 28.1612 179.056 29.6666 176.421C30.4624 175.029 36.3063 166.484 43.3913 156.126C53.0599 141.99 65.0398 124.474 69.6554 117.144C73.938 110.342 75.6939 109.189 82.6658 104.61C88.7141 100.638 98.6878 94.0885 117.642 79.0367C121.399 76.053 123.611 74.2587 125.233 72.9436C127.531 71.0791 128.642 70.1779 131.285 68.2163C136.931 57.8663 147.601 55.399 152.926 57.3958C158.572 60.689 157.16 64.4527 154.808 70.0982C154.719 70.313 154.631 70.5245 154.544 70.7329C152.186 76.4028 150.77 79.8066 144.458 87.0346C142.312 89.492 139.578 92.41 136.828 95.3459C131.34 101.203 125.786 107.132 124.699 109.616C124.626 109.783 124.551 109.952 124.476 110.123C121.172 117.64 116.418 128.456 145.399 129.376C151.462 127.848 156.929 126.467 161.865 125.213V223.537C149.386 226.939 133.514 230.931 117.642 233.817C109.628 235.274 101.33 235.425 93.2566 235.571C83.3214 235.752 73.727 235.926 65.4213 238.521C63.2783 239.191 61.4225 239.632 59.6065 240.063C50.1858 242.302 41.8369 244.286 0.0280151 276.628Z" fill="white"/>
<path d="M29.6666 176.421C28.1611 179.056 52.7523 190.692 43.5 196.18C26.8772 235.855 -4.39471 255.27 35.5 224.408C85.3684 185.83 52.1613 242.665 65.4213 238.521C80.4759 233.817 99.7646 237.067 117.642 233.817C138.342 230.053 159.042 224.408 172.215 220.644C182.753 217.633 182.251 219.703 185.858 220.644C189.465 221.585 201.289 223.655 219.731 224.408C238.173 225.16 246.547 219.389 248.429 216.41C249.37 213.587 248.711 207.753 238.549 207.001C225.847 206.06 194.326 203.237 191.033 203.237C187.74 203.237 185.858 196.18 191.033 196.18C195.173 196.18 245.763 189.594 270.54 186.301C280.89 186.301 294.81 172.306 282.302 170.305C270.54 168.423 263.013 168.894 251.252 170.305C241.536 171.471 223.024 172.187 215.026 173.128C210.165 172.971 200.442 173.128 200.442 171.246C200.442 169.364 206.401 167.012 209.381 166.542L290.77 141.607C291.71 141.009 294.063 141.607 296.886 136.432C297.827 133.139 296.63 131.773 295.945 129.375C294.439 124.106 278.695 127.18 270.54 129.375C252.036 133.766 212.11 143.019 200.442 144.901C188.775 146.782 197.776 141.921 203.735 139.255L256.897 117.144C265.679 112.439 282.772 104.912 283.713 100.207C284.793 94.8076 282.772 88.4458 270.54 91.2685C258.308 94.0912 223.024 105.853 215.026 109.616C207.029 113.38 207.029 113.85 145.399 129.375C115.76 128.435 121.406 117.144 124.699 109.616C126.331 105.886 138.03 94.3947 144.458 87.0345C151.002 79.5408 152.283 76.1577 154.808 70.0981C157.16 64.4526 158.572 60.6889 152.926 57.3958C147.601 55.3989 136.931 57.8662 131.285 68.2162C126.778 71.5615 126.726 71.8228 117.642 79.0366C76.8388 111.439 77.6532 104.441 69.6554 117.144C61.6576 129.846 31.5484 173.128 29.6666 176.421Z" fill="white"/>
</svg>
