<svg version="1.1" id="Layer_1" xmlns="http://www.w3.org/2000/svg" xmlns:xlink="http://www.w3.org/1999/xlink" width="224" height="80">
<style type="text/css">
	.st0{fill:#DABED0;}
	.st1{fill-rule:evenodd;clip-rule:evenodd;fill:#FFFFFF;}
	.st2{fill:#231F20;}
	.st3{fill:#9B1B83;}
</style>
<g>
	<path class="st0" d="M134,79.9L0.2,80l9.4-43.2C18.6-1.3,25,0.1,60,0.1h64.2L223.8,0l-11.4,45c-9,38.1-13.4,34.9-48.4,34.9H134z"/>
	<g>
		<polygon class="st1" points="58.7,11.8 47.6,11.8 32.5,19.8 30.8,31.6 41.1,30.9 34,68.7 46.6,68.6 		"/>
		<path class="st2" d="M59.7,11l0.2-0.1L47.2,69.7H14.2L22.8,29c2.1-10.1,5.3-17.8,17.3-18.1c3-0.1,17.5-0.1,19.6-0.1L59.7,11
			L59.7,11z M45.8,67.5l11.9-55h-9.4c-3.5,4.8-8.1,7.6-13.6,8.4l-1.8,8.8l5.4-0.2H43l-1.8,8.5l-6,29.4L45.8,67.5z"/>
		<path class="st3" d="M48.6,69.4l-0.2,0.1l12.7-58.8h32.9l-8.6,40.7c-2.1,10.1-5.3,17.8-17.3,18.1c-3,0.1-17.5,0.1-19.6,0.1
			L48.6,69.4z"/>
		<path class="st2" d="M101,65.9c0.1-0.3-0.2-0.5-0.4-0.5c-0.3,0-0.5,0.3-0.6,0.5c-0.7,1.2-1.6,1.9-2.8,1.9c-1.1,0-2.6-0.6-2.1-3.4
			c0.6-2.8,2.4-3.5,3.6-3.5c0.6,0,0.9,0.2,1.1,0.3c0.3,0.2,0.6,0.6,0.7,1c0.1,0.3,0.2,0.7,0.6,0.7c0.3,0,0.5-0.3,0.6-0.5
			c0.1-0.4-0.4-2.4-2.8-2.4c-2.3,0-4.3,1.7-4.8,4.4c-0.3,1.3-0.1,2.6,0.5,3.4c0.6,0.8,1.7,1,2.6,1C99.5,68.7,100.8,66.7,101,65.9z"
			/>
		<path class="st2" d="M110.4,66.1l0.4,1.9c0.1,0.5,0.1,0.7,0.5,0.7c0.3,0,0.6-0.3,0.7-0.5c0-0.2,0-0.3-0.1-0.6l-1.4-6.6
			c-0.1-0.3-0.1-0.6-0.2-0.8c-0.1-0.1-0.3-0.2-0.5-0.2c-0.5,0-0.7,0.3-1.1,1l-4,6.7c-0.2,0.3-0.2,0.4-0.3,0.6c0,0.2,0.1,0.5,0.4,0.5
			c0.4,0,0.5-0.2,0.8-0.7l1.1-1.9H110.4L110.4,66.1z M107.1,65.2l2.3-4l0.8,4H107.1z"/>
		<path class="st2" d="M118,64.8h1c0.8,0,1.2,0.1,2,1.9l0.5,1.3c0.2,0.6,0.3,0.8,0.7,0.8c0.3,0,0.6-0.2,0.6-0.5c0-0.2,0-0.3-0.2-0.8
			l-0.5-1.3c0-0.1-0.2-0.5-0.4-0.7c-0.2-0.4-0.6-0.6-0.8-0.7c0.4-0.1,1-0.2,1.6-0.6c0.4-0.3,0.9-0.8,1.1-1.7c0.2-0.8-0.1-1.6-0.7-2
			c-0.5-0.3-1.5-0.3-1.6-0.3h-2.7c-0.9,0-1,0.1-1.1,0.9l-1.4,6.7c0,0.2-0.1,0.5-0.1,0.6c0,0.2,0.2,0.4,0.4,0.4
			c0.2,0,0.5-0.1,0.6-0.4c0.1-0.1,0.1-0.2,0.2-0.6L118,64.8L118,64.8z M120.8,61c0.4,0,1.2,0,1.5,0.3c0.3,0.3,0.4,0.7,0.3,1.1
			c-0.3,1.5-1.9,1.5-2.4,1.5h-2l0.6-2.9H120.8z"/>
		<path class="st2" d="M132.9,64.8h1c0.8,0,1.2,0.1,2,1.9l0.5,1.3c0.2,0.6,0.3,0.8,0.7,0.8c0.3,0,0.6-0.2,0.6-0.5
			c0-0.2,0-0.3-0.2-0.8l-0.5-1.3c0-0.1-0.2-0.5-0.4-0.7c-0.2-0.4-0.6-0.6-0.7-0.7c0.3-0.1,1-0.2,1.6-0.6c0.4-0.3,0.9-0.8,1.1-1.7
			c0.2-0.8-0.1-1.6-0.7-2c-0.5-0.3-1.4-0.3-1.6-0.3h-2.7c-0.9,0-1,0.1-1.1,0.9l-1.4,6.7c0,0.2-0.1,0.5-0.1,0.6
			c0,0.2,0.2,0.4,0.4,0.4c0.2,0,0.5-0.1,0.6-0.4c0.1-0.1,0.1-0.2,0.2-0.6L132.9,64.8L132.9,64.8z M135.7,61c0.4,0,1.2,0,1.5,0.3
			c0.3,0.3,0.4,0.7,0.3,1.1c-0.3,1.5-1.9,1.5-2.4,1.5h-2l0.6-2.9H135.7z"/>
		<path class="st2" d="M144.8,61h3.9c0.4,0,0.8,0,0.9-0.5c0.1-0.5-0.3-0.5-0.7-0.5h-4.1c-0.5,0-0.6,0-0.8,0.2
			c-0.2,0.2-0.2,0.4-0.3,0.8l-1.3,6.6c-0.1,0.5-0.1,0.6,0,0.8c0.1,0.2,0.2,0.2,0.7,0.2h4.3c0.4,0,0.8,0,0.9-0.5
			c0.1-0.5-0.3-0.5-0.7-0.5h-4.1l0.6-3h3.6c0.4,0,0.8,0,0.9-0.5c0.1-0.5-0.3-0.5-0.7-0.5h-3.6L144.8,61z"/>
		<path class="st2" d="M158.5,66.9l-2.9-6.3c-0.2-0.5-0.3-0.7-0.6-0.7c-0.3,0-0.4,0.1-0.5,0.2c-0.3,0.2-0.3,0.4-0.4,0.9l-1.4,6.8
			c-0.1,0.4-0.1,0.6,0,0.7c0.1,0.1,0.2,0.2,0.4,0.2c0.2,0,0.4-0.1,0.5-0.3c0.1-0.2,0.1-0.3,0.2-0.6l1.2-5.9l2.9,6.2
			c0.2,0.5,0.3,0.7,0.7,0.7c0.2,0,0.3-0.1,0.5-0.2c0.3-0.2,0.3-0.4,0.4-1l1.4-6.7c0.1-0.4,0.1-0.6,0-0.8c-0.1-0.1-0.2-0.2-0.4-0.2
			c-0.2,0-0.4,0.1-0.5,0.3c-0.1,0.2-0.1,0.3-0.2,0.6L158.5,66.9z"/>
		<path class="st2" d="M168.6,61h1.9c0.3,0,0.5,0,0.7-0.1c0.1-0.1,0.2-0.2,0.2-0.3c0-0.1,0-0.2-0.1-0.3c-0.1-0.1-0.3-0.1-0.6-0.1h-5
			c-0.3,0-0.5,0-0.7,0.1c-0.1,0.1-0.2,0.2-0.2,0.3c0,0.1,0,0.2,0.1,0.3c0.1,0.1,0.3,0.1,0.6,0.1h1.9l-1.4,6.8
			c-0.1,0.4-0.1,0.6,0,0.8c0.1,0.1,0.2,0.2,0.4,0.2c0.2,0,0.4-0.1,0.4-0.2c0.2-0.1,0.2-0.4,0.3-0.8L168.6,61z"/>
		<path class="st2" d="M179.4,66.1l0.4,1.9c0.1,0.5,0.1,0.7,0.5,0.7c0.3,0,0.6-0.3,0.7-0.5c0-0.2,0-0.3-0.1-0.6l-1.4-6.6
			c-0.1-0.3-0.1-0.6-0.2-0.8c-0.1-0.1-0.3-0.2-0.5-0.2c-0.5,0-0.7,0.3-1.1,1l-4,6.7c-0.2,0.3-0.3,0.4-0.3,0.6c0,0.2,0.1,0.5,0.4,0.5
			c0.4,0,0.5-0.2,0.8-0.7l1.1-1.9H179.4L179.4,66.1z M176.1,65.2l2.3-4l0.8,4H176.1z"/>
		<path class="st2" d="M186.3,67.7l1.4-6.8c0.1-0.4,0.1-0.6,0-0.8c-0.1-0.1-0.2-0.2-0.4-0.2c-0.2,0-0.4,0.1-0.5,0.2
			c-0.2,0.1-0.2,0.4-0.3,0.8l-1.4,6.7c-0.2,0.9-0.1,0.9,0.8,0.9h3.8c0.4,0,0.8,0,0.9-0.4c0.1-0.5-0.3-0.5-0.7-0.5H186.3z"/>
		<path class="st2" d="M121.8,11l-1.7,8.1h-6.7l-1.5,5.9h7.1l-1.4,6.5h-7.2l-5.2,24.8h-8l5.2-24.8h-6.2c-3.5-0.1-3.3-6.3,1.4-6.6
			h6.2c1.6-7.8,4.1-13.7,13.4-14C119.5,10.9,121.8,11,121.8,11L121.8,11z M165.3,31.5l1.5-6.6h5.8l0.6-3c3.6-0.7,6.6-2.4,9-5.3
			l0.1,0l-1.7,8.4h7.2c4,0.3,3.6,6.3-1.5,6.6h-7.2l-2.9,13.4c-0.2,0.7-0.4,1.8-0.4,3c0,1.6,0.9,2.4,2.4,2.5h1.1h7.1
			c4,0.3,3.7,6.3-1.5,6.6c0,0-7.6,0-7.9,0c-5.4,0-9.2-2.1-9.2-8c0-2.4,0.5-4.7,1-7.1l2.3-10.4H165.3L165.3,31.5z M165.6,25
			c-3.4,0-5.3,0-8.2,0c-6.3,0-13.3,2.6-13.3,9.8c0,7.7,10.4,8.2,10.4,13.1c0,2.5-2.8,3.4-5.5,3.4c-3.1,0-5.4-1.1-7.6-2.4
			c-2.9-1.4-4.7,4.6-1.7,6.4c2.9,1.4,6.1,1.8,9.4,1.8c6.8,0,13.8-2.4,13.8-10.4c0-7.5-10.4-8.9-10.4-12.8c0-2.4,3.1-2.5,5.4-2.5h6.2
			L165.6,25L165.6,25z M123.6,56.4l5.5-26.6c0.2-1.3,0.7-3.3,0.9-4.7h7.6l-1.3,6.4h0.1c1.4-3.3,5.4-6.5,9.1-6.5c1,0,2.1,0.1,3,0.3
			l-0.1,0.7c-2.9,1.2-5.1,3.4-5.6,6.7c-4.9,0.6-7.4,5.3-8.4,9.9l-2.9,13.8H123.6z"/>
		<path class="st2" d="M114.1,56.4c0,0,6.1-29.9,6.3-31.3h7.6l-5.9,31.3H114.1z"/>
		<path class="st2" d="M121.7,19.1c0,0,1.4-6.8,1.6-8.2h7.6l-1.6,8.2H121.7z"/>
	</g>
</g>
</svg>
